<?xml version="1.0" encoding="utf-8"?>
<!-- Generator: Adobe Illustrator 17.0.0, SVG Export Plug-In . SVG Version: 6.00 Build 0)  -->
<!DOCTYPE svg PUBLIC "-//W3C//DTD SVG 1.1//EN" "http://www.w3.org/Graphics/SVG/1.1/DTD/svg11.dtd">
<svg version="1.1" id="Layer_1" xmlns="http://www.w3.org/2000/svg" xmlns:xlink="http://www.w3.org/1999/xlink" x="0px" y="0px"
	 width="1550px" height="330px" viewBox="0 0 1550 330" enable-background="new 0 0 1550 330" xml:space="preserve">
<path fill="#FFFFFF" d="M209.5,323c0,0-13.917-4.187-29.035-14.323C158.103,293.305,118.7,266.549,79,228.358
	C20.223,166.208,63.5,95.5,92,76.5s59.155-20.428,67.827-17.964S184.5,71,200.5,67.5s25-14,49.5-16s50-29.428,52,7.036
	S283.5,86.5,306.5,124.5s39.5,53.5,39,68s-2.707,30.635-26.615,53.499c-9.76,10.792-23.348,19.484-44.437,34.806
	C249.625,298.375,225.042,320.917,209.5,323z"/>
<g>
	<g>
		<path fill="#005295" d="M78.981,228.344c-11.792-12.572-21.594-25.312-29.809-39.26c-12.59-21.377-20.798-44.227-22.555-69.115
			c-3.181-45.085,21.184-94.192,69.68-107.991C136.87,0.432,181.08,16.723,204.58,52.011c1.052,1.58,2.086,3.172,3.675,5.591
			c1.401-2.068,2.512-3.659,3.572-5.282C242.463,5.392,309.389-5.883,352.18,28.927c21.375,17.389,32.78,40.535,36.393,67.526
			c4.879,36.453-6.615,68.859-25.748,99.114c-13.1,20.715-29.686,38.45-48,54.623c-0.364,0.321-0.872,0.48-1.78,0.963
			c2.47-14.168,4.566-27.992,7.454-41.65c0.85-4.02-0.342-6.117-2.848-8.547c-16.915-16.398-31.881-34.37-43.734-54.809
			c-7.24-12.486-12.988-25.571-16.003-40.284c4.331,0,8.44,0.682,12.23-0.127c11.528-2.463,19.337-14.341,17.6-25.938
			c-1.809-12.077-12.252-20.539-24.671-19.991c-11.327,0.5-21.036,10.402-21.324,22.304c-0.083,3.433-1.224,5.001-4.121,6.725
			c-31.513,18.756-52.521,45.287-59.762,81.821c-0.135,0.68-0.323,1.35-0.497,2.021c-0.215,0.831-0.442,1.659-0.655,2.453
			c-10.397-0.257-19.817-11.572-17.94-21.466c1.939-10.216,4.144-20.386,5.859-30.639c0.539-3.224,1.54-4.251,4.876-4.366
			c12.108-0.418,21.177-9.795,21.922-22.178c0.666-11.07-7.682-21.908-18.436-23.936c-11.674-2.202-23.511,4.365-26.375,15.867
			c-1.262,5.071,0.298,10.818,0.37,16.261c0.023,1.724-0.002,4.249-1.051,5.07c-33.534,26.225-51.718,61.856-62.781,101.884
			C81.736,216.78,80.56,221.996,78.981,228.344z"/>
		<path fill="#005295" d="M244.455,150.911c15.317,14.775,30.169,29.104,45.025,43.429c1.375,1.326,2.678,2.754,4.19,3.904
			c3.379,2.569,5.824,5.279,3.246,9.845c-0.454,0.803-0.469,2.197-0.09,3.055c0.727,1.648,1.882,3.107,2.859,4.644
			c0.912-1.554,1.941-3.054,2.689-4.684c0.386-0.841,0.273-1.911,0.4-3.005c8.297,4.271,10.189,7.676,8.802,15.666
			c-1.778,10.239-3.509,20.489-5.514,30.685c-0.402,2.044-1.456,4.53-3.034,5.688c-21.128,15.489-42.402,30.779-63.651,46.103
			c-0.247,0.178-0.646,0.145-1.571,0.328c-1.006-7.165-2.056-14.284-2.999-21.418c-3.792-28.695-7.694-57.377-11.169-86.11
			c-0.536-4.431,0.183-9.367,1.635-13.62C229.543,172.913,235.168,161.024,244.455,150.911z"/>
		<path fill="#005295" d="M141.976,182.309c11.336,4.954,22.021,9.623,33.513,14.646c0.311,4.039,0.288,9.801,1.305,15.373
			c1.204,6.601,3.351,13.028,4.997,19.553c0.845,3.351,2.241,6.783,2.105,10.126c-0.891,21.764-2.134,43.513-3.338,66.736
			c-13.281-9.397-25.574-17.199-38.108-26.773c2.718-1.314,3.825-1.849,5.406-2.613
			C135.541,247.379,130.987,214.889,141.976,182.309z"/>
		<path fill="#005295" d="M207.083,258.629c3.297,15.796,6.399,30.666,9.504,45.536c0.883,4.229,2.057,8.426,2.511,12.7
			c0.164,1.544-1.116,4.455-2.207,4.706c-4.413,1.018-9.036,1.806-13.529,1.591c-3.88-0.186-5.805-2.875-5.14-7.267
			c2.693-17.777,5.172-35.587,7.758-53.381C206.124,261.528,206.521,260.579,207.083,258.629z"/>
	</g>
</g>
<g>
	<g>
		<path fill="#005295" d="M435.024,63.324h68.421v17.263h-23.437v71.194h-21.547V80.587h-23.437L435.024,63.324L435.024,63.324z"/>
		<path fill="#005295" d="M514.277,58.536h21.547V90.92c4.284-6.049,11.971-10.207,21.673-10.207
			c16.003,0,26.714,11.089,26.714,29.99v41.078H562.79v-38.18c0-9.577-5.292-14.869-13.483-14.869s-13.482,5.292-13.482,14.869
			v38.18h-21.547V58.536H514.277z"/>
		<path fill="#005295" d="M630.45,152.789c-20.665,0-35.534-13.86-35.534-36.164c0-22.303,14.617-36.164,35.534-36.164
			c20.54,0,35.03,13.609,35.03,35.03c0,2.017-0.126,4.158-0.378,6.301h-48.765c0.756,9.198,6.427,13.482,13.357,13.482
			c6.048,0,9.451-3.024,11.215-6.805h22.933C660.44,142.205,647.965,152.789,630.45,152.789z M616.463,109.821h26.966
			c0-7.687-6.048-12.097-13.231-12.097C623.142,97.725,617.724,102.009,616.463,109.821z"/>
		<path fill="#005295" d="M738.431,120.027h-13.356v31.754h-21.547V63.324h34.904c21.673,0,32.51,12.223,32.51,28.478
			C770.94,106.419,760.986,120.027,738.431,120.027z M736.793,102.891c8.568,0,12.223-4.284,12.223-11.089
			s-3.654-11.089-12.223-11.089h-11.719v22.178C725.074,102.891,736.793,102.891,736.793,102.891z"/>
		<path fill="#005295" d="M808.864,80.461c10.458,0,17.893,4.789,21.673,10.963V81.47h21.547v70.312h-21.547v-9.954
			c-3.906,6.174-11.341,10.962-21.799,10.962c-17.138,0-30.872-14.112-30.872-36.29C777.866,94.322,791.601,80.461,808.864,80.461z
			 M815.164,99.236c-8.064,0-15.373,6.048-15.373,17.263s7.309,17.516,15.373,17.516c8.19,0,15.373-6.175,15.373-17.39
			S823.354,99.236,815.164,99.236z"/>
		<path fill="#005295" d="M889.249,151.781h-21.547V81.47h21.547v11.718c4.915-7.434,12.601-12.475,22.052-12.475v22.808h-5.923
			c-10.206,0-16.129,3.528-16.129,15.625V151.781z"/>
		<path fill="#005295" d="M952.88,152.789c-20.665,0-35.534-13.86-35.534-36.164c0-22.303,14.617-36.164,35.534-36.164
			c20.539,0,35.029,13.609,35.029,35.03c0,2.017-0.126,4.158-0.378,6.301h-48.765c0.756,9.198,6.427,13.482,13.356,13.482
			c6.049,0,9.451-3.024,11.215-6.805h22.934C982.869,142.205,970.395,152.789,952.88,152.789z M938.893,109.821h26.966
			c0-7.687-6.049-12.097-13.23-12.097C945.571,97.725,940.153,102.009,938.893,109.821z"/>
		<path fill="#005295" d="M1047.758,113.602c0-9.577-5.292-14.869-13.482-14.869s-13.483,5.292-13.483,14.869v38.18h-21.547V81.47
			h21.547v9.324c4.284-5.923,11.845-10.081,21.296-10.081c16.255,0,27.091,11.089,27.091,29.99v41.078h-21.421L1047.758,113.602
			L1047.758,113.602z"/>
		<path fill="#005295" d="M1087.571,99.362h-8.568V81.47h8.568V64.333h21.547V81.47h14.113v17.893h-14.113v28.226
			c0,4.158,1.765,5.922,6.553,5.922h7.687v18.271h-10.963c-14.617,0-24.823-6.175-24.823-24.445L1087.571,99.362L1087.571,99.362z"
			/>
		<path fill="#005295" d="M1163.927,152.789c-18.775,0-31.376-10.458-32.384-24.067h21.295c0.504,4.915,4.914,8.19,10.837,8.19
			c5.544,0,8.442-2.52,8.442-5.67c0-11.341-38.306-3.15-38.306-28.981c0-11.971,10.206-21.8,28.604-21.8
			c18.145,0,28.226,10.081,29.611,23.941h-19.909c-0.63-4.788-4.284-7.938-10.332-7.938c-5.041,0-7.813,2.017-7.813,5.419
			c0,11.214,38.054,3.275,38.432,29.485C1192.404,143.591,1181.567,152.789,1163.927,152.789z"/>
		<path fill="#005295" d="M1273.672,62.694c19.657,0,34.274,9.828,40.574,26.714h-10.332c-4.915-11.719-15.247-19.027-30.242-19.027
			c-19.279,0-34.021,14.238-34.021,37.298c0,22.934,14.742,37.172,34.021,37.172c14.995,0,25.327-7.309,30.242-18.774h10.332
			c-6.3,16.633-20.917,26.461-40.574,26.461c-24.445,0-43.094-18.396-43.094-44.858S1249.227,62.694,1273.672,62.694z"/>
		<path fill="#005295" d="M1360.611,81.974c13.86,0,23.311,7.435,27.217,16.129V82.981h8.821v68.8h-8.821v-15.247
			c-4.032,8.82-13.608,16.255-27.343,16.255c-18.775,0-32.763-13.986-32.763-35.534C1327.723,95.708,1341.71,81.974,1360.611,81.974
			z M1362.249,89.66c-14.491,0-25.579,10.08-25.579,27.595c0,17.39,11.088,27.848,25.579,27.848
			c14.113,0,25.579-10.584,25.579-27.722C1387.828,100.244,1376.362,89.66,1362.249,89.66z"/>
		<path fill="#005295" d="M1425.625,151.781h-8.82v-68.8h8.82v12.223c3.78-8.442,11.719-13.482,23.563-13.482v9.198h-2.395
			c-11.467,0-21.169,5.166-21.169,22.429L1425.625,151.781L1425.625,151.781z"/>
		<path fill="#005295" d="M1492.154,152.789c-19.531,0-33.77-13.608-33.77-35.408c0-21.925,13.986-35.407,33.77-35.407
			c20.161,0,32.51,14.364,32.51,31.88c0,2.771,0,4.536-0.252,6.93h-57.081c0.756,16.129,11.971,24.571,24.823,24.571
			c11.719,0,19.657-6.174,22.177-15.372h9.325C1520.506,142.961,1509.417,152.789,1492.154,152.789z M1467.331,113.602h48.387
			c0.378-16.003-11.215-24.067-23.941-24.067C1479.302,89.534,1468.339,97.599,1467.331,113.602z"/>
	</g>
	<g>
		<path d="M451.565,246.59c-10.081,0-17.209-5.616-17.354-13.897h6.984c0.432,4.177,3.384,8.354,10.369,8.354
			c6.336,0,10.081-3.601,10.081-8.354c0-13.537-27.146-4.896-27.146-23.546c0-8.28,6.696-13.896,16.633-13.896
			c9.577,0,15.841,5.256,16.633,12.889h-7.201c-0.432-3.385-3.6-7.2-9.721-7.272c-5.4-0.145-9.649,2.664-9.649,8.064
			c0,12.961,27.074,4.896,27.074,23.474C468.27,239.533,462.438,246.59,451.565,246.59z"/>
		<path d="M517.95,246.086h-6.553v-5.832c-2.52,4.104-7.345,6.408-12.601,6.408c-9.073,0-16.201-5.616-16.201-16.922v-23.113h6.48
			v22.249c0,7.993,4.393,12.098,11.017,12.098c6.769,0,11.305-4.177,11.305-12.673v-21.674h6.553V246.086z"/>
		<path d="M555.389,205.979c10.585,0,18.722,7.921,18.722,20.233c0,12.241-8.137,20.522-18.722,20.522
			c-7.201,0-12.313-3.889-14.761-7.921v25.994h-6.553v-58.181h6.553v7.272C543.003,209.723,548.188,205.979,555.389,205.979z
			 M554.021,211.667c-7.128,0-13.393,5.473-13.393,14.617c0,9.289,6.265,14.689,13.393,14.689c7.272,0,13.393-5.473,13.393-14.762
			C567.414,216.924,561.293,211.667,554.021,211.667z"/>
		<path d="M609.1,205.979c10.585,0,18.722,7.921,18.722,20.233c0,12.241-8.137,20.522-18.722,20.522
			c-7.201,0-12.313-3.889-14.761-7.921v25.994h-6.553v-58.181h6.553v7.272C596.715,209.723,601.899,205.979,609.1,205.979z
			 M607.732,211.667c-7.128,0-13.393,5.473-13.393,14.617c0,9.289,6.265,14.689,13.393,14.689c7.272,0,13.393-5.473,13.393-14.762
			C621.125,216.924,615.004,211.667,607.732,211.667z"/>
		<path d="M658.708,246.734c-11.161,0-19.658-7.921-19.658-20.45c0-12.457,8.785-20.306,19.946-20.306
			c11.233,0,19.946,7.849,19.946,20.306C678.941,238.813,669.94,246.734,658.708,246.734z M658.708,240.974
			c6.841,0,13.537-4.681,13.537-14.689c0-9.937-6.552-14.617-13.321-14.617c-6.913,0-13.177,4.681-13.177,14.617
			C645.747,236.293,651.867,240.974,658.708,240.974z"/>
		<path d="M699.17,246.086h-6.553v-39.459h6.553v6.408c2.232-4.393,6.48-7.129,12.745-7.129v6.769h-1.729
			c-6.264,0-11.017,2.809-11.017,11.953V246.086z"/>
		<path d="M725.953,212.027h-5.112v-5.4h5.112v-9.938h6.553v9.938h10.297v5.4h-10.297v23.258c0,3.889,1.44,5.256,5.473,5.256h4.824
			v5.545h-5.904c-6.985,0-10.945-2.88-10.945-10.801V212.027z"/>
		<path d="M795.938,246.59c-10.081,0-17.21-5.616-17.354-13.897h6.984c0.433,4.177,3.385,8.354,10.369,8.354
			c6.336,0,10.081-3.601,10.081-8.354c0-13.537-27.146-4.896-27.146-23.546c0-8.28,6.696-13.896,16.633-13.896
			c9.577,0,15.842,5.256,16.634,12.889h-7.2c-0.433-3.385-3.601-7.2-9.721-7.272c-5.401-0.145-9.649,2.664-9.649,8.064
			c0,12.961,27.074,4.896,27.074,23.474C812.644,239.533,806.812,246.59,795.938,246.59z"/>
		<path d="M844.394,246.734c-11.233,0-19.514-7.921-19.514-20.45c0-12.457,7.992-20.306,19.514-20.306
			c11.448,0,18.938,8.064,18.938,18.865c0,1.44-0.072,2.593-0.216,3.961h-31.539c0.504,7.992,6.12,12.385,12.817,12.385
			c5.904,0,9.648-3.024,11.089-7.272h7.057C860.522,241.117,854.186,246.734,844.394,246.734z M831.648,223.476h24.914
			c0.071-7.704-5.688-11.952-12.457-11.952C837.696,211.523,832.368,215.771,831.648,223.476z"/>
		<path d="M883.56,246.086h-6.552v-39.459h6.552v6.408c2.232-4.393,6.48-7.129,12.745-7.129v6.769h-1.728
			c-6.265,0-11.018,2.809-11.018,11.953V246.086z"/>
		<path d="M911.279,206.627l12.313,33.41l12.241-33.41h6.984l-15.48,39.459h-7.633l-15.481-39.459H911.279z"/>
		<path d="M953.254,195.754c0-2.521,1.943-4.465,4.464-4.465c2.376,0,4.32,1.944,4.32,4.465c0,2.52-1.944,4.464-4.32,4.464
			C955.197,200.218,953.254,198.273,953.254,195.754z M954.334,206.627h6.552v39.459h-6.552V206.627z"/>
		<path d="M993.862,205.979c9.793,0,16.201,5.04,18.217,13.321h-7.057c-1.367-4.753-5.328-7.776-11.16-7.776
			c-7.201,0-12.529,5.112-12.529,14.761c0,9.793,5.328,14.905,12.529,14.905c5.832,0,9.721-2.809,11.16-7.776h7.057
			c-2.016,7.849-8.424,13.321-18.217,13.321c-11.233,0-19.226-7.921-19.226-20.45C974.637,213.899,982.629,205.979,993.862,205.979z
			"/>
		<path d="M1042.895,246.734c-11.233,0-19.514-7.921-19.514-20.45c0-12.457,7.992-20.306,19.514-20.306
			c11.448,0,18.938,8.064,18.938,18.865c0,1.44-0.072,2.593-0.216,3.961h-31.539c0.504,7.992,6.12,12.385,12.817,12.385
			c5.904,0,9.648-3.024,11.089-7.272h7.057C1059.023,241.117,1052.687,246.734,1042.895,246.734z M1030.149,223.476h24.914
			c0.071-7.704-5.688-11.952-12.457-11.952C1036.197,211.523,1030.869,215.771,1030.149,223.476z"/>
		<path d="M1089.478,246.734c-9.217,0-15.697-5.041-16.129-12.241h6.769c0.359,3.816,3.744,6.696,9.288,6.696
			c5.185,0,8.065-2.592,8.065-5.832c0-8.785-23.33-3.673-23.33-18.362c0-6.048,5.688-11.017,14.473-11.017
			c8.713,0,14.474,4.681,14.905,12.385h-6.553c-0.288-3.96-3.312-6.84-8.568-6.84c-4.824,0-7.705,2.304-7.705,5.472
			c0,9.361,22.898,4.249,23.187,18.362C1103.879,241.838,1098.19,246.734,1089.478,246.734z"/>
		<path d="M1142.396,195.897h28.37v5.328h-21.818v16.922h17.714v5.328h-17.714v22.61h-6.552V195.897z"/>
		<path d="M1200.933,246.734c-11.161,0-19.657-7.921-19.657-20.45c0-12.457,8.784-20.306,19.945-20.306
			c11.233,0,19.945,7.849,19.945,20.306C1221.166,238.813,1212.166,246.734,1200.933,246.734z M1200.933,240.974
			c6.841,0,13.537-4.681,13.537-14.689c0-9.937-6.553-14.617-13.321-14.617c-6.912,0-13.177,4.681-13.177,14.617
			C1187.972,236.293,1194.092,240.974,1200.933,240.974z"/>
		<path d="M1241.396,246.086h-6.552v-39.459h6.552v6.408c2.232-4.393,6.48-7.129,12.745-7.129v6.769h-1.728
			c-6.265,0-11.018,2.809-11.018,11.953V246.086z"/>
		<path d="M1318.004,201.226h-20.45v16.778h18.29v5.4h-18.29v17.281h20.45v5.4h-27.002v-50.261h27.002V201.226z"/>
		<path d="M1332.978,192.802h6.552v53.284h-6.552V192.802z"/>
		<path d="M1372.073,205.979c6.192,0,11.881,3.168,14.617,7.705v-20.882h6.625v53.284h-6.625v-7.417
			c-2.376,4.393-7.488,8.065-14.688,8.065c-10.585,0-18.722-8.281-18.722-20.522C1353.28,213.899,1361.417,205.979,1372.073,205.979
			z M1373.298,211.667c-7.201,0-13.321,5.257-13.321,14.545c0,9.289,6.12,14.762,13.321,14.762c7.2,0,13.393-5.4,13.393-14.689
			C1386.69,217.14,1380.498,211.667,1373.298,211.667z"/>
		<path d="M1426.505,246.734c-11.233,0-19.514-7.921-19.514-20.45c0-12.457,7.992-20.306,19.514-20.306
			c11.448,0,18.938,8.064,18.938,18.865c0,1.44-0.072,2.593-0.216,3.961h-31.539c0.504,7.992,6.12,12.385,12.817,12.385
			c5.904,0,9.648-3.024,11.089-7.272h7.057C1442.634,241.117,1436.297,246.734,1426.505,246.734z M1413.76,223.476h24.914
			c0.071-7.704-5.688-11.952-12.457-11.952C1419.808,211.523,1414.479,215.771,1413.76,223.476z"/>
		<path d="M1465.671,246.086h-6.552v-39.459h6.552v6.408c2.232-4.393,6.48-7.129,12.745-7.129v6.769h-1.728
			c-6.265,0-11.018,2.809-11.018,11.953V246.086z"/>
		<path d="M1504.983,246.734c-9.217,0-15.697-5.041-16.129-12.241h6.769c0.359,3.816,3.744,6.696,9.288,6.696
			c5.185,0,8.065-2.592,8.065-5.832c0-8.785-23.33-3.673-23.33-18.362c0-6.048,5.688-11.017,14.473-11.017
			c8.713,0,14.474,4.681,14.905,12.385h-6.553c-0.288-3.96-3.312-6.84-8.568-6.84c-4.824,0-7.705,2.304-7.705,5.472
			c0,9.361,22.898,4.249,23.187,18.362C1519.385,241.838,1513.696,246.734,1504.983,246.734z"/>
	</g>
</g>
</svg>
