<?xml version="1.0" encoding="utf-8"?>
<!-- Generator: Adobe Illustrator 17.0.0, SVG Export Plug-In . SVG Version: 6.00 Build 0)  -->
<!DOCTYPE svg PUBLIC "-//W3C//DTD SVG 1.1//EN" "http://www.w3.org/Graphics/SVG/1.1/DTD/svg11.dtd">
<svg version="1.1" id="Layer_1" xmlns="http://www.w3.org/2000/svg" xmlns:xlink="http://www.w3.org/1999/xlink" x="0px" y="0px"
	 width="1550px" height="330px" viewBox="0 0 1550 330" enable-background="new 0 0 1550 330" xml:space="preserve">
<g>
	<g>
		<path fill="#005295" d="M78.981,228.344c-11.792-12.572-21.594-25.312-29.809-39.26c-12.59-21.377-20.798-44.227-22.555-69.115
			C23.436,74.884,47.801,25.777,96.297,11.978C136.87,0.432,181.08,16.723,204.58,52.011c1.052,1.58,2.086,3.172,3.675,5.591
			c1.401-2.068,2.512-3.659,3.572-5.282C242.463,5.392,309.389-5.883,352.18,28.927c21.375,17.389,32.78,40.535,36.393,67.526
			c4.879,36.453-6.615,68.859-25.748,99.114c-13.1,20.715-29.686,38.45-48,54.623c-0.364,0.321-0.872,0.48-1.78,0.963
			c2.47-14.168,4.566-27.992,7.454-41.65c0.85-4.02-0.342-6.117-2.848-8.547c-16.915-16.398-31.881-34.37-43.734-54.809
			c-7.24-12.486-12.988-25.571-16.003-40.284c4.331,0,8.44,0.682,12.23-0.127c11.528-2.463,19.337-14.341,17.6-25.938
			c-1.809-12.077-12.252-20.539-24.671-19.991c-11.327,0.5-21.036,10.402-21.324,22.304c-0.083,3.433-1.224,5.001-4.121,6.725
			c-31.513,18.756-52.521,45.287-59.762,81.821c-0.135,0.68-0.323,1.35-0.497,2.021c-0.215,0.831-0.442,1.659-0.655,2.453
			c-10.397-0.257-19.817-11.572-17.94-21.466c1.939-10.216,4.144-20.386,5.859-30.639c0.539-3.224,1.54-4.251,4.876-4.366
			c12.108-0.418,21.177-9.795,21.922-22.178c0.666-11.07-7.682-21.908-18.436-23.936c-11.674-2.202-23.511,4.365-26.375,15.867
			c-1.262,5.071,0.298,10.818,0.37,16.261c0.023,1.724-0.002,4.249-1.051,5.07c-33.534,26.225-51.718,61.856-62.781,101.884
			C81.736,216.78,80.56,221.996,78.981,228.344z"/>
		<path fill="#005295" d="M244.455,150.911c15.317,14.775,30.169,29.104,45.025,43.429c1.375,1.326,2.678,2.754,4.19,3.904
			c3.379,2.569,5.824,5.279,3.246,9.845c-0.454,0.803-0.469,2.197-0.09,3.055c0.727,1.648,1.882,3.107,2.859,4.644
			c0.912-1.554,1.941-3.054,2.689-4.684c0.386-0.841,0.273-1.911,0.4-3.005c8.297,4.271,10.189,7.676,8.802,15.666
			c-1.778,10.239-3.509,20.489-5.514,30.685c-0.402,2.044-1.456,4.53-3.034,5.688c-21.128,15.489-42.402,30.779-63.651,46.103
			c-0.247,0.178-0.646,0.145-1.571,0.328c-1.006-7.165-2.056-14.284-2.999-21.418c-3.792-28.695-7.694-57.377-11.169-86.11
			c-0.536-4.431,0.183-9.367,1.635-13.62C229.543,172.913,235.168,161.024,244.455,150.911z"/>
		<path fill="#005295" d="M141.976,182.309c11.336,4.954,22.021,9.623,33.513,14.646c0.311,4.039,0.288,9.801,1.305,15.373
			c1.204,6.601,3.351,13.028,4.997,19.553c0.845,3.351,2.241,6.783,2.105,10.126c-0.891,21.764-2.134,43.513-3.338,66.736
			c-13.281-9.397-25.574-17.199-38.108-26.773c2.718-1.314,3.825-1.849,5.406-2.613
			C135.541,247.379,130.987,214.889,141.976,182.309z"/>
		<path fill="#005295" d="M207.083,258.629c3.297,15.796,6.399,30.666,9.504,45.536c0.883,4.229,2.057,8.426,2.511,12.7
			c0.164,1.544-1.116,4.455-2.207,4.706c-4.413,1.018-9.036,1.806-13.529,1.591c-3.88-0.186-5.805-2.875-5.14-7.267
			c2.693-17.777,5.172-35.587,7.758-53.381C206.124,261.528,206.521,260.579,207.083,258.629z"/>
	</g>
</g>
<g>
	<g>
		<path fill="#005295" d="M435.024,63.324h68.421v17.263h-23.437v71.194h-21.547V80.587h-23.437V63.324z"/>
		<path fill="#005295" d="M514.277,58.536h21.547V90.92c4.284-6.049,11.971-10.207,21.673-10.207
			c16.003,0,26.714,11.089,26.714,29.99v41.078H562.79v-38.18c0-9.577-5.292-14.869-13.483-14.869s-13.482,5.292-13.482,14.869
			v38.18h-21.547V58.536z"/>
		<path fill="#005295" d="M630.45,152.789c-20.665,0-35.534-13.86-35.534-36.164c0-22.303,14.617-36.164,35.534-36.164
			c20.54,0,35.03,13.609,35.03,35.03c0,2.017-0.126,4.158-0.378,6.301h-48.765c0.756,9.198,6.427,13.482,13.357,13.482
			c6.048,0,9.451-3.024,11.215-6.805h22.933C660.44,142.205,647.965,152.789,630.45,152.789z M616.463,109.821h26.966
			c0-7.687-6.048-12.097-13.231-12.097C623.142,97.725,617.724,102.009,616.463,109.821z"/>
		<path fill="#005295" d="M738.431,120.027h-13.356v31.754h-21.547V63.324h34.904c21.673,0,32.51,12.223,32.51,28.478
			C770.94,106.419,760.986,120.027,738.431,120.027z M736.793,102.891c8.568,0,12.223-4.284,12.223-11.089
			s-3.654-11.089-12.223-11.089h-11.719v22.178H736.793z"/>
		<path fill="#005295" d="M808.864,80.461c10.458,0,17.893,4.789,21.673,10.963V81.47h21.547v70.312h-21.547v-9.954
			c-3.906,6.174-11.341,10.962-21.799,10.962c-17.138,0-30.872-14.112-30.872-36.29C777.866,94.322,791.601,80.461,808.864,80.461z
			 M815.164,99.236c-8.064,0-15.373,6.048-15.373,17.263s7.309,17.516,15.373,17.516c8.19,0,15.373-6.175,15.373-17.39
			S823.354,99.236,815.164,99.236z"/>
		<path fill="#005295" d="M889.249,151.781h-21.547V81.47h21.547v11.718c4.915-7.434,12.601-12.475,22.052-12.475v22.808h-5.923
			c-10.206,0-16.129,3.528-16.129,15.625V151.781z"/>
		<path fill="#005295" d="M952.88,152.789c-20.665,0-35.534-13.86-35.534-36.164c0-22.303,14.617-36.164,35.534-36.164
			c20.539,0,35.029,13.609,35.029,35.03c0,2.017-0.126,4.158-0.378,6.301h-48.765c0.756,9.198,6.427,13.482,13.356,13.482
			c6.049,0,9.451-3.024,11.215-6.805h22.934C982.869,142.205,970.395,152.789,952.88,152.789z M938.893,109.821h26.966
			c0-7.687-6.049-12.097-13.23-12.097C945.571,97.725,940.153,102.009,938.893,109.821z"/>
		<path fill="#005295" d="M1047.758,113.602c0-9.577-5.292-14.869-13.482-14.869s-13.483,5.292-13.483,14.869v38.18h-21.547V81.47
			h21.547v9.324c4.284-5.923,11.845-10.081,21.296-10.081c16.255,0,27.091,11.089,27.091,29.99v41.078h-21.421V113.602z"/>
		<path fill="#005295" d="M1087.571,99.362h-8.568V81.47h8.568V64.333h21.547V81.47h14.113v17.893h-14.113v28.226
			c0,4.158,1.765,5.922,6.553,5.922h7.687v18.271h-10.963c-14.617,0-24.823-6.175-24.823-24.445V99.362z"/>
		<path fill="#005295" d="M1163.927,152.789c-18.775,0-31.376-10.458-32.384-24.067h21.295c0.504,4.915,4.914,8.19,10.837,8.19
			c5.544,0,8.442-2.52,8.442-5.67c0-11.341-38.306-3.15-38.306-28.981c0-11.971,10.206-21.8,28.604-21.8
			c18.145,0,28.226,10.081,29.611,23.941h-19.909c-0.63-4.788-4.284-7.938-10.332-7.938c-5.041,0-7.813,2.017-7.813,5.419
			c0,11.214,38.054,3.275,38.432,29.485C1192.404,143.591,1181.567,152.789,1163.927,152.789z"/>
		<path fill="#005295" d="M1273.672,62.694c19.657,0,34.274,9.828,40.574,26.714h-10.332c-4.915-11.719-15.247-19.027-30.242-19.027
			c-19.279,0-34.021,14.238-34.021,37.298c0,22.934,14.742,37.172,34.021,37.172c14.995,0,25.327-7.309,30.242-18.774h10.332
			c-6.3,16.633-20.917,26.461-40.574,26.461c-24.445,0-43.094-18.396-43.094-44.858S1249.227,62.694,1273.672,62.694z"/>
		<path fill="#005295" d="M1360.611,81.974c13.86,0,23.311,7.435,27.217,16.129V82.981h8.821v68.8h-8.821v-15.247
			c-4.032,8.82-13.608,16.255-27.343,16.255c-18.775,0-32.763-13.986-32.763-35.534C1327.723,95.708,1341.71,81.974,1360.611,81.974
			z M1362.249,89.66c-14.491,0-25.579,10.08-25.579,27.595c0,17.39,11.088,27.848,25.579,27.848
			c14.113,0,25.579-10.584,25.579-27.722C1387.828,100.244,1376.362,89.66,1362.249,89.66z"/>
		<path fill="#005295" d="M1425.625,151.781h-8.82v-68.8h8.82v12.223c3.78-8.442,11.719-13.482,23.563-13.482v9.198h-2.395
			c-11.467,0-21.169,5.166-21.169,22.429V151.781z"/>
		<path fill="#005295" d="M1492.154,152.789c-19.531,0-33.77-13.608-33.77-35.408c0-21.925,13.986-35.407,33.77-35.407
			c20.161,0,32.51,14.364,32.51,31.88c0,2.771,0,4.536-0.252,6.93h-57.081c0.756,16.129,11.971,24.571,24.823,24.571
			c11.719,0,19.657-6.174,22.177-15.372h9.325C1520.506,142.961,1509.417,152.789,1492.154,152.789z M1467.331,113.602h48.387
			c0.378-16.003-11.215-24.067-23.941-24.067C1479.302,89.534,1468.339,97.599,1467.331,113.602z"/>
	</g>
	<g>
		<path fill="#8496A2" d="M460.832,268.56c-11.2,0-18.56-6.399-18.88-14.96h5.92c0.48,4.641,3.92,10.24,12.96,10.24
			c7.76,0,12.32-4.56,12.32-10.32c0-16.48-30.721-6.08-30.721-27.12c0-8.641,7.12-14.961,17.92-14.961
			c10.641,0,17.041,5.92,18,13.601h-6.08c-0.64-3.92-4.4-8.721-12.16-8.8c-6.56-0.08-12,3.52-12,10
			c0,16.16,30.721,6.24,30.721,27.04C478.833,260.88,472.672,268.56,460.832,268.56z"/>
		<path fill="#8496A2" d="M533.072,268h-5.6v-7.68c-2.64,5.52-8.4,8.399-14.88,8.399c-9.92,0-17.761-6.08-17.761-18.88v-25.521
			h5.521v24.88c0,9.681,5.28,14.641,13.28,14.641c8.16,0,13.84-5.12,13.84-15.761v-23.76h5.6V268z"/>
		<path fill="#8496A2" d="M574.352,223.679c11.92,0,20.8,8.721,20.8,22.4c0,13.681-8.88,22.561-20.8,22.561
			c-8.72,0-14.8-4.8-17.36-10.24v30.241h-5.521v-64.321h5.521v9.6C559.551,228.399,565.631,223.679,574.352,223.679z
			 M573.231,228.56c-8.88,0-16.24,6.72-16.24,17.6c0,10.881,7.36,17.601,16.24,17.601c9.2,0,16.24-6.64,16.24-17.681
			C589.472,234.959,582.432,228.56,573.231,228.56z"/>
		<path fill="#8496A2" d="M633.95,223.679c11.92,0,20.8,8.721,20.8,22.4c0,13.681-8.88,22.561-20.8,22.561
			c-8.72,0-14.8-4.8-17.36-10.24v30.241h-5.521v-64.321h5.521v9.6C619.15,228.399,625.23,223.679,633.95,223.679z M632.83,228.56
			c-8.88,0-16.24,6.72-16.24,17.6c0,10.881,7.36,17.601,16.24,17.601c9.2,0,16.24-6.64,16.24-17.681
			C649.07,234.959,642.03,228.56,632.83,228.56z"/>
		<path fill="#8496A2" d="M689.789,268.64c-12.32,0-21.681-8.64-21.681-22.48c0-13.92,9.601-22.48,21.841-22.48
			c12.32,0,21.84,8.561,21.84,22.48C711.79,260,702.109,268.64,689.789,268.64z M689.789,263.76c8.24,0,16.24-5.6,16.24-17.601
			c0-12-7.84-17.6-16.16-17.6s-16.081,5.6-16.081,17.6C673.789,258.16,681.469,263.76,689.789,263.76z"/>
		<path fill="#8496A2" d="M733.229,268h-5.6v-43.681h5.6v7.76c2.4-5.36,7.44-8.561,14.961-8.561v5.841h-1.521
			c-7.28,0-13.44,3.28-13.44,14.24V268z"/>
		<path fill="#8496A2" d="M763.788,229.039h-6.08v-4.72h6.08v-10.961h5.681v10.961h12v4.72h-12v27.121c0,5.359,1.84,7.04,6.88,7.04
			h5.12v4.8h-6c-7.601,0-11.681-3.12-11.681-11.84V229.039z"/>
		<path fill="#8496A2" d="M859.708,241.84h-30.321V268h-5.6v-55.921h5.6v25.12h30.321v-25.12h5.6V268h-5.6V241.84z"/>
		<path fill="#8496A2" d="M902.826,268.64c-12.32,0-21.681-8.64-21.681-22.48c0-13.92,9.601-22.48,21.841-22.48
			c12.32,0,21.841,8.561,21.841,22.48C924.827,260,915.146,268.64,902.826,268.64z M902.826,263.76c8.24,0,16.24-5.6,16.24-17.601
			c0-12-7.84-17.6-16.16-17.6s-16.08,5.6-16.08,17.6C886.826,258.16,894.506,263.76,902.826,263.76z"/>
		<path fill="#8496A2" d="M1004.506,243.039c0-9.68-5.04-14.64-12.8-14.64c-7.92,0-13.521,5.28-13.521,15.92V268h-5.521v-24.961
			c0-9.68-5.119-14.64-12.88-14.64c-8,0-13.521,5.28-13.521,15.92V268h-5.6v-43.681h5.6v7.52c2.801-5.52,8.32-8.32,14.48-8.32
			c7.28,0,13.521,3.44,16.16,10.721c2.4-7.12,8.801-10.721,15.761-10.721c9.681,0,17.36,6.081,17.36,18.881V268h-5.521V243.039z"/>
		<path fill="#8496A2" d="M1046.904,268.64c-12.4,0-21.44-8.64-21.44-22.48c0-13.92,8.881-22.48,21.44-22.48
			c12.801,0,20.641,9.12,20.641,20.241c0,1.76,0,2.88-0.16,4.399h-36.24c0.479,10.24,7.6,15.601,15.76,15.601
			c7.44,0,12.48-3.92,14.081-9.76h5.92C1064.905,262.399,1057.865,268.64,1046.904,268.64z M1031.145,243.76h30.721
			c0.239-10.16-7.12-15.28-15.2-15.28C1038.744,228.479,1031.784,233.6,1031.145,243.76z"/>
		<path fill="#8496A2" d="M1110.903,212.079h30.24v4.64h-24.641V237.6h20.801v4.64h-20.801V268h-5.6V212.079z"/>
		<path fill="#8496A2" d="M1175.063,268.64c-12.32,0-21.681-8.64-21.681-22.48c0-13.92,9.601-22.48,21.841-22.48
			c12.32,0,21.841,8.561,21.841,22.48C1197.063,260,1187.383,268.64,1175.063,268.64z M1175.063,263.76
			c8.24,0,16.24-5.6,16.24-17.601c0-12-7.84-17.6-16.16-17.6s-16.08,5.6-16.08,17.6
			C1159.063,258.16,1166.742,263.76,1175.063,263.76z"/>
		<path fill="#8496A2" d="M1218.502,268h-5.6v-43.681h5.6v7.76c2.4-5.36,7.44-8.561,14.961-8.561v5.841h-1.521
			c-7.28,0-13.44,3.28-13.44,14.24V268z"/>
		<path fill="#8496A2" d="M1304.182,216.639h-23.601v20.881h21.201v4.64h-21.201v21.201h23.601V268h-29.2v-56.001h29.2V216.639z"/>
		<path fill="#8496A2" d="M1320.82,208.799h5.6V268h-5.6V208.799z"/>
		<path fill="#8496A2" d="M1363.141,223.679c7.84,0,14.4,4.32,17.2,10.08v-24.96h5.601V268h-5.601v-9.76
			c-2.561,5.76-8.641,10.399-17.28,10.399c-12,0-20.881-8.88-20.881-22.561C1342.18,232.399,1351.061,223.679,1363.141,223.679z
			 M1364.101,228.56c-9.2,0-16.24,6.399-16.24,17.52c0,11.041,7.04,17.681,16.24,17.681c8.96,0,16.24-6.72,16.24-17.601
			C1380.341,235.279,1373.061,228.56,1364.101,228.56z"/>
		<path fill="#8496A2" d="M1423.219,268.64c-12.4,0-21.44-8.64-21.44-22.48c0-13.92,8.881-22.48,21.44-22.48
			c12.801,0,20.641,9.12,20.641,20.241c0,1.76,0,2.88-0.16,4.399h-36.24c0.479,10.24,7.6,15.601,15.76,15.601
			c7.44,0,12.48-3.92,14.081-9.76h5.92C1441.22,262.399,1434.18,268.64,1423.219,268.64z M1407.459,243.76h30.721
			c0.239-10.16-7.12-15.28-15.2-15.28C1415.059,228.479,1408.099,233.6,1407.459,243.76z"/>
		<path fill="#8496A2" d="M1465.298,268h-5.6v-43.681h5.6v7.76c2.4-5.36,7.44-8.561,14.961-8.561v5.841h-1.521
			c-7.28,0-13.44,3.28-13.44,14.24V268z"/>
		<path fill="#8496A2" d="M1509.299,268.64c-9.92,0-16.88-4.96-17.601-12.96h5.761c0.479,4.8,4.64,8.24,11.76,8.24
			c6.24,0,9.761-3.36,9.761-7.521c0-10.8-26.241-4.479-26.241-20.88c0-6.48,6.16-11.841,15.36-11.841
			c9.36,0,15.521,4.96,16.001,13.36h-5.601c-0.32-4.88-3.92-8.56-10.561-8.56c-5.84,0-9.52,3.12-9.52,6.96
			c0,11.84,25.84,5.52,26.08,20.96C1524.499,263.439,1518.339,268.64,1509.299,268.64z"/>
	</g>
</g>
</svg>
